<?xml version="1.0" encoding="UTF-8" standalone="no" ?>
<!DOCTYPE svg PUBLIC "-//W3C//DTD SVG 1.1//EN" "http://www.w3.org/Graphics/SVG/1.1/DTD/svg11.dtd">
<svg xmlns="http://www.w3.org/2000/svg" xmlns:xlink="http://www.w3.org/1999/xlink" version="1.1" width="400" height="400" viewBox="158.91 154.95 400 400" xml:space="preserve">
<desc>Created with Fabric.js 5.2.4</desc>
<defs>
</defs>
<rect x="0" y="0" width="100%" height="100%" fill="transparent"></rect>
<g transform="matrix(0 0 0 0 0 0)" id="69f7fc9c-ba9f-4df3-aa9b-b15b5f914e89"  >
</g>
<g transform="matrix(1 0 0 1 200 200)" id="070a998d-7d06-4fcb-8a00-6435e5582cd2"  >
<rect style="stroke: none; stroke-width: 1; stroke-dasharray: none; stroke-linecap: butt; stroke-dashoffset: 0; stroke-linejoin: miter; stroke-miterlimit: 4; fill: rgb(255,255,255); fill-rule: nonzero; opacity: 1; visibility: hidden;" vector-effect="non-scaling-stroke"  x="-200" y="-200" rx="0" ry="0" width="400" height="400" />
</g>
<g transform="matrix(0.37 0 0 0.37 358.53 354.78)"  >
<path style="stroke: none; stroke-width: 0; stroke-dasharray: none; stroke-linecap: butt; stroke-dashoffset: 0; stroke-linejoin: miter; stroke-miterlimit: 4; fill: rgb(22,30,31); fill-rule: nonzero; opacity: 1;" vector-effect="non-scaling-stroke"  transform=" translate(-192.64, -272.34)" d="M 0 0 C 0.68149948 -0.00175304 1.36299896 -0.00350607 2.06514993 -0.00531223 C 4.35344256 -0.00997173 6.64167164 -0.00750686 8.92996693 -0.00507832 C 10.58532555 -0.00694632 12.24068373 -0.00924698 13.89604121 -0.01194364 C 18.44887603 -0.01806949 23.0016925 -0.01792712 27.5545305 -0.01674926 C 32.46333976 -0.01654545 37.37214309 -0.02206219 42.28094959 -0.02680683 C 51.9003185 -0.03511856 61.51968129 -0.03786192 71.13905349 -0.03841921 C 78.95826279 -0.03889418 86.77747007 -0.04094799 94.59667873 -0.04411983 C 116.76216881 -0.05292831 138.92765403 -0.05753898 161.09314587 -0.05678936 C 162.88612283 -0.05672943 162.88612283 -0.05672943 164.71532154 -0.05666828 C 165.91209807 -0.0566274 167.10887459 -0.05658652 168.34191708 -0.0565444 C 187.73443126 -0.05613801 207.12692602 -0.06570526 226.51943459 -0.07980665 C 246.42820103 -0.09416926 266.33695799 -0.10107688 286.24572974 -0.10021287 C 297.42425342 -0.09988083 308.60275674 -0.10263088 319.78127575 -0.11339092 C 329.29996596 -0.12249446 338.8186266 -0.12467242 348.33731928 -0.1178815 C 353.19317753 -0.11461539 358.04897902 -0.11456289 362.90483189 -0.12323475 C 367.35299029 -0.13109674 371.80104691 -0.12967135 376.24920283 -0.12095062 C 377.85554682 -0.11941496 379.4618984 -0.12123428 381.06823345 -0.12681069 C 394.69763957 -0.17097893 405.59260719 1.73382215 418.13451099 7.12863445 C 418.76695728 7.39917645 419.39940357 7.66971844 420.0510149 7.94845867 C 436.29216365 15.04068087 448.20328718 25.52599118 458.13451099 40.12863445 C 458.78033131 41.07093914 459.42615162 42.01324383 460.09154224 42.9841032 C 469.98515506 58.61126941 473.44288211 76.46957522 473.40193653 94.67465496 C 473.40567687 96.25423222 473.41027992 97.83380764 473.41566718 99.41338015 C 473.4278656 103.73845129 473.42764043 108.06344489 473.42527843 112.3885293 C 473.42486945 117.0595086 473.43591728 121.73046331 473.44539356 126.40143108 C 473.4619883 135.5480187 473.46750246 144.69458053 473.46861832 153.84118193 C 473.46956972 161.28028014 473.47368464 168.71936986 473.48001957 176.15846539 C 473.49762949 197.26879099 473.50685908 218.37909629 473.50535862 239.4894293 C 473.50523875 241.19560636 473.50523875 241.19560636 473.50511646 242.93625164 C 473.5050347 244.07509892 473.50495294 245.2139462 473.5048687 246.38730401 C 473.50405635 264.83074887 473.52318175 283.27411195 473.5513932 301.71753317 C 473.58015933 320.67386402 473.59393137 339.63015505 473.59220564 358.58650827 C 473.59154293 369.22139947 473.59698302 379.85620499 473.61856174 390.49107647 C 473.63682287 399.5487322 473.64108066 408.60626342 473.6275429 417.66392964 C 473.62103747 422.27974276 473.62080762 426.89531739 473.6382494 431.51110744 C 473.65409381 435.74801781 473.65100201 439.98450284 473.63368113 444.22140354 C 473.63063598 445.7429632 473.63414826 447.26455551 473.64540128 448.78607661 C 473.79914408 471.07444163 467.34015461 490.85083607 453.13451099 508.12863445 C 452.45130787 509.02453289 451.76810474 509.92043133 451.06419849 510.8434782 C 436.82645517 529.40837881 414.1804453 540.96480083 391.13451099 544.12863445 C 379.21781115 545.00282263 367.2415594 544.81441739 355.30043137 544.76759875 C 350.44902578 544.75410098 345.59769513 544.76970559 340.74629688 544.78142071 C 331.26961127 544.7997079 321.79313314 544.79134587 312.31645419 544.77333248 C 304.61109576 544.75925628 296.9057933 544.75542443 289.20042324 544.75877476 C 288.10009475 544.7592522 286.99976625 544.75972964 285.86609447 544.76022155 C 283.63024811 544.76124796 281.39440176 544.76230333 279.15855543 544.76338731 C 259.43183069 544.7719358 239.70520561 544.75533743 219.97850513 544.72555828 C 200.86518135 544.69670576 181.75200099 544.68964908 162.63866138 544.70505047 C 141.78461248 544.72183168 120.93063152 544.72582877 100.07658082 544.70834011 C 97.85089386 544.70649586 95.6252069 544.70466113 93.39951992 544.70283604 C 91.75721558 544.7014679 91.75721558 544.7014679 90.08173337 544.70007213 C 82.38858714 544.69448019 74.69547424 544.69776118 67.00232983 544.70438099 C 57.6231705 544.71213187 48.24415205 544.70529787 38.86502101 544.68020595 C 34.08534956 544.66775391 29.305897 544.66151215 24.52621746 544.67274761 C 20.14241629 544.68285762 15.75904975 544.67418801 11.37530104 544.65116643 C 9.79826073 544.64604731 8.22118083 544.64749546 6.64415827 544.65656108 C -7.16948837 544.72930142 -19.51667031 542.18292844 -32.11548901 536.31613445 C -32.87361889 535.96849041 -33.63174877 535.62084637 -34.41285229 535.26266766 C -57.70901177 524.35517416 -74.69139537 505.34370816 -83.57789135 481.23825359 C -86.27990959 473.57192595 -87.98714864 466.57176517 -87.99971008 458.38832474 C -88.00206231 457.732495 -88.00441454 457.07666527 -88.00683805 456.40096191 C -88.01348871 454.20596697 -88.01307103 452.01103177 -88.01266003 449.81602764 C -88.01596111 448.22524105 -88.01968719 446.63445529 -88.02380151 445.04367059 C -88.03380191 440.67377556 -88.03753514 436.30389426 -88.04019082 431.93398941 C -88.04409971 427.22005658 -88.05367766 422.50613457 -88.06240368 417.79220867 C -88.08215188 406.40855528 -88.09223235 395.02490102 -88.10113147 383.64123479 C -88.10551718 378.27716 -88.11088327 372.91308619 -88.11612034 367.54901218 C -88.1331312 349.71181887 -88.14762456 331.87462617 -88.15486908 314.03742599 C -88.1567789 309.41019534 -88.15869924 304.7829647 -88.16065502 300.15573406 C -88.16113876 299.00569381 -88.1616225 297.85565356 -88.1621209 296.6707636 C -88.1704182 278.04795176 -88.1957507 259.42520422 -88.2282357 240.80242044 C -88.26133316 221.67217684 -88.27932028 202.54196589 -88.28251332 183.41169351 C -88.28467596 172.67509373 -88.29338853 161.93858771 -88.31897449 151.20201588 C -88.34071821 142.05676829 -88.34871387 132.91163723 -88.33900771 123.76636673 C -88.33447362 119.10423717 -88.3362972 114.44234786 -88.35576916 109.7802515 C -88.37347765 105.50324218 -88.37234135 101.22664701 -88.35687187 96.94963282 C -88.35450739 95.41119237 -88.35875838 93.87272266 -88.37070052 92.33432675 C -88.47892107 77.4589788 -85.20656156 64.61273874 -78.86548901 51.12863445 C -78.44783276 50.22757977 -78.03017651 49.32652508 -77.59986401 48.3981657 C -67.25812561 27.80384184 -48.06014145 13.30094323 -26.86548901 5.12863445 C -21.92967652 3.5455659 -16.91617105 2.29005308 -11.86548901 1.12863445 C -11.1137694 0.95057709 -10.3620498 0.77251973 -9.58755082 0.58906668 C -6.35090597 0.04159359 -3.28375436 0.00190562 0 0 Z M -37.59986401 57.12863445 C -46.85776138 69.38736752 -48.1670519 81.6421618 -48.12618542 96.48051739 C -48.12920901 98.03890897 -48.13309954 99.59729907 -48.13777798 101.15568656 C -48.14803999 105.42200569 -48.14588075 109.68824062 -48.14159739 113.9545666 C -48.13912689 118.56205212 -48.14814838 123.16951754 -48.15563488 127.77699566 C -48.16837509 136.79758093 -48.1701764 145.81813643 -48.16783462 154.83872918 C -48.16605046 162.17251147 -48.16780319 169.50628474 -48.17205906 176.84006596 C -48.17265425 177.88446842 -48.17324944 178.92887089 -48.17386266 180.00492191 C -48.17507443 182.12674533 -48.17628857 184.24856875 -48.17750504 186.37039217 C -48.18837806 206.26296186 -48.18621927 226.15551459 -48.18012019 246.04808524 C -48.17495182 264.23623311 -48.18620482 282.42432742 -48.20521841 300.6124647 C -48.22460259 319.2986977 -48.23285176 337.98490536 -48.22909516 356.67114848 C -48.22718393 367.15775102 -48.22966309 377.64430796 -48.2438097 388.13090229 C -48.25573187 397.05876499 -48.25711902 405.98655405 -48.24501953 414.91441778 C -48.23913662 419.46678884 -48.23801516 424.01902525 -48.25002193 428.57138729 C -48.26090011 432.74444587 -48.25775448 436.91725768 -48.24376025 441.09030481 C -48.24111863 442.59427692 -48.24346295 444.09826849 -48.25149611 445.60222147 C -48.32821336 461.0455994 -45.81257229 476.180318 -34.80298901 487.81613445 C -19.61307337 501.76554031 -4.8344779 506.93654137 15.56268787 506.74336529 C 17.15258672 506.7469883 18.74248178 506.75280273 20.33236569 506.76058728 C 24.65340042 506.77549661 28.9738326 506.75964962 33.29481947 506.73828065 C 37.97306094 506.72067268 42.6512474 506.73219097 47.32950306 506.73994732 C 56.47387117 506.75057962 65.61800759 506.73473611 74.7623404 506.70980906 C 85.42122969 506.68178694 96.08007295 506.68053575 106.73899295 506.68036605 C 125.75930943 506.67918062 144.77951993 506.6542622 163.7997942 506.615695 C 182.24023682 506.57832795 200.68060241 506.55709729 219.12108326 506.55417156 C 220.8259582 506.55389735 220.8259582 506.55389735 222.56527505 506.55361759 C 224.26725791 506.55334913 224.26725791 506.55334913 226.00362426 506.55307525 C 228.28838686 506.55270983 230.57314946 506.55233745 232.85791206 506.55195808 C 233.98478316 506.55177257 235.11165426 506.55158706 236.27267297 506.55139592 C 253.87292775 506.54782318 271.47317071 506.52937303 289.07341344 506.50946484 C 295.44332266 506.50245242 301.81322908 506.4976639 308.18314133 506.49450349 C 318.28459012 506.48944784 328.38598549 506.47798094 338.48740683 506.45320319 C 343.1004252 506.44200746 347.71339136 506.43386532 352.3264246 506.43433666 C 356.5533964 506.43464626 360.78024488 506.42564779 365.00718441 506.40936864 C 366.53178502 506.40507093 368.05639947 506.4040681 369.5810037 506.40679472 C 389.9952483 506.43813737 404.69760764 502.06406565 420.19701099 488.2966032 C 428.88814219 479.3920737 433.24953142 466.74710552 433.26873207 454.52608776 C 433.2710843 453.88515379 433.27343653 453.24421983 433.27586004 452.58386362 C 433.28250867 450.43954959 433.28209308 448.29529675 433.28168201 446.15097332 C 433.28498322 444.59659722 433.28870933 443.04222197 433.29282349 441.48784781 C 433.30282241 437.21863629 433.30655689 432.94943883 433.3092128 428.68021727 C 433.31312211 424.0746889 433.32269999 419.4691716 433.33142567 414.86365032 C 433.35117212 403.74251857 433.36125386 392.62138594 433.37015346 381.50024104 C 433.37453923 376.260064 433.37990528 371.01988797 433.38514233 365.77971172 C 433.40215258 348.35513551 433.4166462 330.93055992 433.42389107 313.50597668 C 433.42580089 308.9859902 433.42772123 304.46600372 433.42967701 299.94601727 C 433.43016075 298.82263024 433.43064449 297.69924321 433.43114289 296.54181415 C 433.43944118 278.34835004 433.46477563 260.15495171 433.49725769 241.96151632 C 433.53035082 223.27311237 433.54834186 204.58474183 433.55153531 185.89630842 C 433.55369828 175.40733827 433.56241589 164.91846407 433.58799648 154.42952251 C 433.60973424 145.49578089 433.61773875 136.56215854 433.6080297 127.62839347 C 433.60349397 123.0737248 433.60532883 118.51930205 433.62479115 113.96466732 C 433.64248771 109.78701304 433.64137292 105.60978291 433.62589385 101.43212372 C 433.62352759 99.92869399 433.62778986 98.42523438 433.6397225 96.92185014 C 433.76325523 80.31637265 429.79288887 64.36803376 418.15404224 51.9684782 C 405.3256396 40.28148083 390.04765005 37.3639402 373.34651661 37.49371624 C 371.70528129 37.48794101 370.06405246 37.47999055 368.4228369 37.47008002 C 363.95522068 37.44937611 359.48814448 37.45944602 355.02052736 37.47501111 C 350.18610576 37.48638857 345.35177287 37.46883051 340.51736927 37.4551115 C 331.06407203 37.43294347 321.61097391 37.43765123 312.15766905 37.45217471 C 304.47219496 37.46349101 296.78677647 37.46498752 289.10129642 37.45955563 C 288.00526376 37.45878946 286.90923109 37.4580233 285.77998532 37.45723391 C 283.55307382 37.45563521 281.32616233 37.45401414 279.09925087 37.45237096 C 258.24564757 37.43813265 237.3921544 37.45447675 216.53856917 37.48137279 C 198.66164052 37.50371606 180.78487422 37.49982397 162.90794849 37.47677898 C 142.12316837 37.44999787 121.33848457 37.43949919 100.5536896 37.4548403 C 98.33582443 37.45643297 96.11795924 37.45800483 93.90009403 37.45955563 C 92.26344748 37.46071269 92.26344748 37.46071269 90.59373736 37.46189313 C 82.92023602 37.46620272 75.24679601 37.4589397 67.57330418 37.44715786 C 58.21809954 37.43310893 48.86310456 37.43698341 39.50792383 37.46356158 C 34.73861421 37.47666654 29.96965367 37.48190887 25.20034695 37.46531582 C 20.82808919 37.45033459 16.45650164 37.45873799 12.08430405 37.48520358 C 10.50916809 37.49075403 8.93397463 37.48802601 7.35887615 37.47582464 C -10.63663005 37.34719886 -25.73556704 43.39888199 -37.59986401 57.12863445 Z" stroke-linecap="round" />
</g>
<g transform="matrix(0.37 0 0 0.37 310.1 306.6)"  >
<path style="stroke: none; stroke-width: 1; stroke-dasharray: none; stroke-linecap: butt; stroke-dashoffset: 0; stroke-linejoin: miter; stroke-miterlimit: 4; fill: rgb(20,29,30); fill-rule: nonzero; opacity: 1;" vector-effect="non-scaling-stroke"  transform=" translate(-68.16, -70.59)" d="M 0 0 C 17.634375 -0.0928125 17.634375 -0.0928125 35.625 -0.1875 C 39.30865723 -0.21481201 42.99231445 -0.24212402 46.78759766 -0.27026367 C 51.3581543 -0.28381348 51.3581543 -0.28381348 53.5118103 -0.28633118 C 54.98538956 -0.29087571 56.45895915 -0.30129404 57.9324646 -0.31672668 C 70.93258864 -0.44582914 83.53962628 0.40669357 95.25 6.6875 C 95.91620361 7.03200195 96.58240723 7.37650391 97.26879883 7.73144531 C 103.07449126 10.83287587 108.06387683 14.65694153 113 19 C 113.83273437 19.63421875 114.66546875 20.2684375 115.5234375 20.921875 C 127.66311481 31.1084812 134.82036504 48.63768497 136.1953125 64.21240234 C 136.88064623 77.29371 134.94790008 88.02870661 129.1875 99.8125 C 128.76146484 100.72708984 128.33542969 101.64167969 127.89648438 102.58398438 C 125.47831085 107.61422432 123.22192589 111.34052293 119 115 C 118.2575 115.763125 117.515 116.52625 116.75 117.3125 C 115.8425 118.199375 114.935 119.08625 114 120 C 113.09701172 120.91458984 113.09701172 120.91458984 112.17578125 121.84765625 C 83.60323368 149.25828876 34.52217145 140 1 140 C 0.67 93.8 0.34 47.6 0 0 Z" stroke-linecap="round" />
</g>
<g transform="matrix(0.37 0 0 0.37 371.41 306.27)"  >
<path style="stroke: none; stroke-width: 1; stroke-dasharray: none; stroke-linecap: butt; stroke-dashoffset: 0; stroke-linejoin: miter; stroke-miterlimit: 4; fill: rgb(21,29,30); fill-rule: nonzero; opacity: 1;" vector-effect="non-scaling-stroke"  transform=" translate(46.93, -55.12)" d="M 0 0 C 1.81062902 1.45589354 3.60494479 2.93253886 5.375 4.4375 C 6.02597656 4.96472656 6.67695312 5.49195313 7.34765625 6.03515625 C 17.31088068 14.90900762 22.52727526 27.74139388 25.375 40.4375 C 25.54717041 41.06358154 25.71934082 41.68966309 25.89672852 42.3347168 C 29.65740932 58.86904235 25.59030036 76.60182056 16.75 90.75 C 6.12439938 105.37797791 -5.46898492 116.13295103 -22.625 122.4375 C -23.99011719 122.95183594 -23.99011719 122.95183594 -25.3828125 123.4765625 C -44.74632094 129.51707388 -67.38609487 125.84188127 -85.08398438 116.63598633 C -103.10928292 106.73517979 -113.55367638 90.93708547 -119.8112793 71.66918945 C -121.1690678 66.27673628 -121.21925953 61.03508376 -121.125 55.5 C -121.10687256 53.78659424 -121.10687256 53.78659424 -121.08837891 52.03857422 C -120.8947376 43.82466227 -120.07943052 36.97052605 -116.625 29.4375 C -115.98884766 27.92929687 -115.98884766 27.92929687 -115.33984375 26.390625 C -111.8678844 18.76972257 -107.18829843 12.65297906 -101.625 6.4375 C -101.09519531 5.80199219 -100.56539062 5.16648437 -100.01953125 4.51171875 C -74.69777175 -23.80438763 -28.48488097 -20.88177365 0 0 Z" stroke-linecap="round" />
</g>
<g transform="matrix(0.37 0 0 0.37 392.99 394.71)"  >
<path style="stroke: none; stroke-width: 1; stroke-dasharray: none; stroke-linecap: butt; stroke-dashoffset: 0; stroke-linejoin: miter; stroke-miterlimit: 4; fill: rgb(17,25,27); fill-rule: nonzero; opacity: 1;" vector-effect="non-scaling-stroke"  transform=" translate(103, -92.5)" d="M 0 0 C 0 13.53 0 27.06 0 41 C -19.5970393 41.08709795 -39.15489987 40.94193054 -58.74609375 40.49609375 C -60.91955187 40.44802963 -63.09301378 40.40013649 -65.26647949 40.35241699 C -70.5110319 40.23690704 -75.75552826 40.11911384 -81 40 C -81.0234576 56.54317743 -81.04104192 73.0863494 -81.05181217 89.62953949 C -81.05694798 97.31243957 -81.06393835 104.99532925 -81.07543945 112.67822266 C -81.08546987 119.38192614 -81.09187313 126.08562209 -81.09408849 132.78933287 C -81.09538154 136.33224642 -81.09837678 139.87513845 -81.10573006 143.41804504 C -81.11391083 147.39263832 -81.11398582 151.36719519 -81.11352539 155.34179688 C -81.1189183 157.06487816 -81.1189183 157.06487816 -81.12442017 158.82276917 C -81.11349694 167.62244953 -80.55202999 176.16752011 -80 185 C -95.84 185 -111.68 185 -128 185 C -128.02258637 167.12792874 -128.04100215 149.25586969 -128.05181217 131.38378811 C -128.05696519 123.08519924 -128.06398895 114.78661988 -128.07543945 106.48803711 C -128.08541666 99.2537471 -128.09186066 92.01946398 -128.09408849 84.78516728 C -128.09539044 80.95581876 -128.09844363 77.12648994 -128.10573006 73.29714775 C -128.11253818 69.68980885 -128.11460722 66.08249769 -128.11310768 62.47515297 C -128.11351218 60.52629873 -128.11888235 58.57744749 -128.12442017 56.62860107 C -128.1230455 55.45782516 -128.12167084 54.28704926 -128.12025452 53.08079529 C -128.12117631 52.06958838 -128.1220981 51.05838148 -128.12304783 50.01653194 C -127.98611303 46.65955929 -127.47514243 43.32599702 -127 40 C -166.105 40.495 -166.105 40.495 -206 41 C -205.67 27.8 -205.34 14.6 -205 1 C -178.86193773 0.86951097 -152.72387505 0.73910414 -126.58581161 0.60884857 C -114.44994836 0.54836845 -102.31408529 0.48785098 -90.17822266 0.42724609 C -79.60280813 0.37443398 -69.02739326 0.3216914 -58.45197797 0.26903296 C -52.85041863 0.24113852 -47.24885947 0.21320883 -41.64730072 0.18519592 C -36.37790786 0.15884524 -31.10851455 0.13258735 -25.83912086 0.10640144 C -23.90250697 0.09676106 -21.96589325 0.08708642 -20.02927971 0.07737541 C -17.39010538 0.06414653 -14.75093047 0.05103965 -12.11175537 0.03796387 C -10.95611151 0.03212744 -10.95611151 0.03212744 -9.77712131 0.02617311 C -6.51801101 0.010141 -3.25916234 0 0 0 Z" stroke-linecap="round" />
</g>
<g transform="matrix(0.37 0 0 0.37 359.44 345.13)"  >
<path style="stroke: none; stroke-width: 1; stroke-dasharray: none; stroke-linecap: butt; stroke-dashoffset: 0; stroke-linejoin: miter; stroke-miterlimit: 4; fill: rgb(25,32,33); fill-rule: nonzero; opacity: 1;" vector-effect="non-scaling-stroke"  transform=" translate(-200.5, -15.56)" d="M 0 0 C 132.66 0.33 265.32 0.66 402 1 C 402 10.9 402 20.8 402 31 C 353.98174762 31.02264099 305.96349653 31.04052828 257.94523987 31.05106533 C 252.26679727 31.05231593 246.58835469 31.05361026 240.90991211 31.05493164 C 239.77951164 31.05519395 238.64911116 31.05545626 237.48445613 31.05572652 C 219.21912216 31.06006913 200.95379136 31.06794889 182.68845927 31.0771528 C 163.92449249 31.08652859 145.16052737 31.09206391 126.39655834 31.09408849 C 114.83297206 31.09545558 103.26939474 31.09976188 91.70581121 31.10791647 C 83.75921017 31.11323241 75.81261371 31.11479335 67.86601102 31.11350138 C 63.2921287 31.11286553 58.71826197 31.1137891 54.14438248 31.11920547 C 35.73132692 31.13997947 17.39398 30.99015435 -1 30 C -0.67 20.1 -0.34 10.2 0 0 Z" stroke-linecap="round" />
</g>
<g transform="matrix(0.37 0 0 0.37 311.54 394.89)"  >
<path style="stroke: none; stroke-width: 1; stroke-dasharray: none; stroke-linecap: butt; stroke-dashoffset: 0; stroke-linejoin: miter; stroke-miterlimit: 4; fill: rgb(20,30,31); fill-rule: nonzero; opacity: 1;" vector-effect="non-scaling-stroke"  transform=" translate(23, -93)" d="M 0 0 C 0.81934675 39.10189415 1.25425666 78.19769042 1.51740873 117.30652106 C 1.56815075 124.82871433 1.62252914 132.3508803 1.67708123 139.87304676 C 1.78851322 155.24867297 1.89532115 170.6243261 2 186 C -14.5 186 -31 186 -48 186 C -48 124.95 -48 63.9 -48 1 C -3 0 -3 0 0 0 Z" stroke-linecap="round" />
</g>
<g transform="matrix(0.37 0 0 0.37 370.99 306.45)"  >
<path style="stroke: none; stroke-width: 1; stroke-dasharray: none; stroke-linecap: butt; stroke-dashoffset: 0; stroke-linejoin: miter; stroke-miterlimit: 4; fill: rgb(230,233,234); fill-rule: nonzero; opacity: 1;" vector-effect="non-scaling-stroke"  transform=" translate(13.54, -29.59)" d="M 0 0 C 1.98828125 1.11328125 1.98828125 1.11328125 3.9375 2.4375 C 4.71480469 2.94667969 5.49210938 3.45585937 6.29296875 3.98046875 C 13.18231403 8.89179646 18.12459332 15.03220539 19.9375 23.4375 C 20.89810457 32.62974684 19.38677151 40.62613895 13.94921875 48.2109375 C 9.5679073 53.37165323 5.38005424 57.22568497 -1.0625 59.4375 C -2.01576172 59.77007812 -2.01576172 59.77007812 -2.98828125 60.109375 C -11.75162789 62.7085239 -20.70119594 62.09129408 -29.0625 58.4375 C -37.95774343 53.15643604 -42.86986547 46.15907215 -46.0625 36.4375 C -47.97008264 28.64820421 -47.88745639 21.57741859 -44.0625 14.4375 C -43.69511719 13.70402344 -43.32773437 12.97054688 -42.94921875 12.21484375 C -35.2757517 -1.34387826 -14.09329826 -5.87848804 0 0 Z" stroke-linecap="round" />
</g>
<g transform="matrix(0.37 0 0 0.37 423.36 292.99)"  >
<path style="stroke: none; stroke-width: 1; stroke-dasharray: none; stroke-linecap: butt; stroke-dashoffset: 0; stroke-linejoin: miter; stroke-miterlimit: 4; fill: rgb(15,26,29); fill-rule: nonzero; opacity: 1;" vector-effect="non-scaling-stroke"  transform=" translate(11.96, -28.25)" d="M 0 0 C 7.96110626 4.23211225 13.67720201 10.0621624 17.125 18.4375 C 19.67611896 28.98985571 17.74751924 36.19573441 12.125 45.4375 C 7.00293212 53.12829261 -0.0331627 56.6194299 -8.875 58.4375 C -17.72486553 59.57808826 -24.74353511 57.13884243 -32.125 52.3125 C -39.54007576 44.56037534 -42.28548261 37.14338069 -42.14453125 26.59765625 C -41.35982821 17.39729746 -36.68059744 10.46269166 -29.875 4.4375 C -21.02762266 -2.34129622 -10.5435204 -4.16287271 0 0 Z" stroke-linecap="round" />
</g>
<g transform="matrix(0.37 0 0 0.37 310.34 306.43)"  >
<path style="stroke: none; stroke-width: 1; stroke-dasharray: none; stroke-linecap: butt; stroke-dashoffset: 0; stroke-linejoin: miter; stroke-miterlimit: 4; fill: rgb(229,232,233); fill-rule: nonzero; opacity: 1;" vector-effect="non-scaling-stroke"  transform=" translate(-25.75, -31.07)" d="M 0 0 C 32.60046729 0 32.60046729 0 42 9 C 47.87897783 14.94593658 51.42623223 20.44089187 51.5 29.0625 C 51.2788513 38.43367634 49.29990983 47.38690156 42.3125 54.0625 C 29.50720598 63.85478366 16.02310716 62 0 62 C 0 41.54 0 21.08 0 0 Z" stroke-linecap="round" />
</g>
<g transform="matrix(0.37 0 0 0.37 299.31 305.44)"  >
<path style="stroke: none; stroke-width: 1; stroke-dasharray: none; stroke-linecap: butt; stroke-dashoffset: 0; stroke-linejoin: miter; stroke-miterlimit: 4; fill: rgb(5,7,8); fill-rule: nonzero; opacity: 1;" vector-effect="non-scaling-stroke"  transform=" translate(-39, -67.44)" d="M 0 0 C 9.43166031 -0.0231824 18.8633108 -0.04094518 28.2949934 -0.05181217 C 32.67461848 -0.05702808 37.05422404 -0.0641023 41.43383789 -0.07543945 C 45.6613363 -0.08631421 49.88881596 -0.09228658 54.11632729 -0.09487724 C 55.72823698 -0.09672321 57.34014565 -0.10032792 58.95204735 -0.10573006 C 61.21178776 -0.11300136 63.47145092 -0.11398837 65.73120117 -0.11352539 C 67.01693527 -0.115746 68.30266937 -0.11796661 69.62736511 -0.12025452 C 72.55856695 -0.01573972 75.15678842 0.31493758 78 1 C 78 1.33 78 1.66 78 2 C 53.25 2 28.5 2 3 2 C 3 45.89 3 89.78 3 135 C 2.67 135 2.34 135 2 135 C 0.87117092 107.89625467 0.69241227 80.78423229 0.46777344 53.66094971 C 0.41671844 47.59230209 0.36147986 41.52369252 0.30664062 35.45507812 C 0.20043679 23.63675156 0.09871123 11.81839136 0 0 Z" stroke-linecap="round" />
</g>
<g transform="matrix(0.37 0 0 0.37 392.62 364.92)"  >
<path style="stroke: none; stroke-width: 1; stroke-dasharray: none; stroke-linecap: butt; stroke-dashoffset: 0; stroke-linejoin: miter; stroke-miterlimit: 4; fill: rgb(0,2,2); fill-rule: nonzero; opacity: 1;" vector-effect="non-scaling-stroke"  transform=" translate(-101, -11)" d="M 0 0 C 66.66 0 133.32 0 202 0 C 202 0.33 202 0.66 202 1 C 200.47845479 1.00634791 200.47845479 1.00634791 198.9261713 1.01282406 C 174.28241388 1.11586507 149.6386866 1.22459355 124.99498081 1.33933926 C 113.07763732 1.39469598 101.16029084 1.44818193 89.24291992 1.49731445 C 78.85978796 1.54012636 68.47667827 1.58639667 58.09358066 1.63687855 C 52.5921698 1.66350368 47.09076341 1.68835727 41.58932686 1.70907402 C 36.4175885 1.72860375 31.24589261 1.75273632 26.07419205 1.78049088 C 24.17018973 1.78988079 22.26617806 1.79754903 20.36216164 1.80341911 C 17.77443945 1.81164747 15.18682126 1.82591461 12.59913635 1.84178162 C 11.45373039 1.84324878 11.45373039 1.84324878 10.28518492 1.84474558 C 6.8532991 1.56503387 6.8532991 1.56503387 4 3 C 3.77428816 4.41120902 3.60611651 5.83176043 3.46484375 7.25390625 C 3.37783203 8.10791016 3.29082031 8.96191406 3.20117188 9.84179688 C 3.11416016 10.73962891 3.02714844 11.63746094 2.9375 12.5625 C 2.84662109 13.46419922 2.75574219 14.36589844 2.66210938 15.29492188 C 2.43746077 17.52958434 2.21694231 19.76457839 2 22 C 1.67 22 1.34 22 1 22 C 0.67 14.74 0.34 7.48 0 0 Z" stroke-linecap="round" />
</g>
<g transform="matrix(0.37 0 0 0.37 401.36 403.06)"  >
<path style="stroke: none; stroke-width: 1; stroke-dasharray: none; stroke-linecap: butt; stroke-dashoffset: 0; stroke-linejoin: miter; stroke-miterlimit: 4; fill: rgb(193,197,202); fill-rule: nonzero; opacity: 1;" vector-effect="non-scaling-stroke"  transform=" translate(-0.51, -55)" d="M 0 0 C 0.33 0 0.66 0 1 0 C 2.12297137 8.57156121 2.14642975 17.11471526 2.1328125 25.7421875 C 2.13348897 27.27507543 2.13446182 28.80796326 2.13571167 30.34085083 C 2.13718052 33.5532534 2.13506569 36.76562805 2.13037109 39.97802734 C 2.12476021 44.00483872 2.12798992 48.0315827 2.13382339 52.05839157 C 2.1573964 71.39648335 1.87591352 90.67841328 1 110 C 0.34 109.67 -0.32 109.34 -1 109 C -1.02322917 96.41236863 -1.04096884 83.82474241 -1.05181217 71.23709393 C -1.05701792 65.39137194 -1.06407344 59.54566468 -1.07543945 53.69995117 C -1.08635062 48.05246143 -1.09229421 42.40498581 -1.09487724 36.75748634 C -1.09671671 34.60906566 -1.1003086 32.4606457 -1.10573006 30.31223106 C -1.11304985 27.28976176 -1.11398636 24.26734987 -1.11352539 21.24487305 C -1.11712067 20.36804871 -1.12071594 19.49122437 -1.12442017 18.58782959 C -1.11420372 12.34715241 -0.65131829 6.20532438 0 0 Z" stroke-linecap="round" />
</g>
<g transform="matrix(0.37 0 0 0.37 294.69 344.92)"  >
<path style="stroke: none; stroke-width: 1; stroke-dasharray: none; stroke-linecap: butt; stroke-dashoffset: 0; stroke-linejoin: miter; stroke-miterlimit: 4; fill: rgb(5,8,9); fill-rule: nonzero; opacity: 1;" vector-effect="non-scaling-stroke"  transform=" translate(-25.5, -15)" d="M 0 0 C 6.93 0.495 6.93 0.495 14 1 C 10.38863788 2.80568106 9.455469 3.24851563 5.75 3.125 C 3.89375 3.063125 3.89375 3.063125 2 3 C 2.01160156 4.30195313 2.02320313 5.60390625 2.03515625 6.9453125 C 2.04453973 8.67187356 2.05363934 10.39843618 2.0625 12.125 C 2.07087891 12.9809375 2.07925781 13.836875 2.08789062 14.71875 C 2.09111328 15.55664062 2.09433594 16.39453125 2.09765625 17.2578125 C 2.10289307 18.0223877 2.10812988 18.78696289 2.11352539 19.57470703 C 1.98106758 22.40446153 1.46571815 25.2056911 1 28 C 17.83 28.33 34.66 28.66 52 29 C 52 29.33 52 29.66 52 30 C 34.51 30 17.02 30 -1 30 C -0.67 20.1 -0.34 10.2 0 0 Z" stroke-linecap="round" />
</g>
<g transform="matrix(0.37 0 0 0.37 275.25 435.3)"  >
<path style="stroke: none; stroke-width: 1; stroke-dasharray: none; stroke-linecap: butt; stroke-dashoffset: 0; stroke-linejoin: miter; stroke-miterlimit: 4; fill: rgb(12,17,20); fill-rule: nonzero; opacity: 1;" vector-effect="non-scaling-stroke"  transform=" translate(-9, -9)" d="M 0 0 C 3.28099409 1.40103451 5.07414935 2.99346316 7.3125 5.75 C 10.18891945 9.17430887 13.20447149 12.01143032 16.71484375 14.7734375 C 17.13894531 15.17820312 17.56304687 15.58296875 18 16 C 18 16.66 18 17.32 18 18 C 12.40540541 16.63243243 12.40540541 16.63243243 10.4375 13.5625 C 9.963125 12.716875 9.48875 11.87125 9 11 C 7.36368108 9.95107762 5.69514137 8.95093297 4 8 C 1.6875 6.0625 1.6875 6.0625 0 4 C 0 2.68 0 1.36 0 0 Z" stroke-linecap="round" />
</g>
<g transform="matrix(0.37 0 0 0.37 286.73 325.66)"  >
<path style="stroke: none; stroke-width: 1; stroke-dasharray: none; stroke-linecap: butt; stroke-dashoffset: 0; stroke-linejoin: miter; stroke-miterlimit: 4; fill: rgb(16,17,23); fill-rule: nonzero; opacity: 1;" vector-effect="non-scaling-stroke"  transform=" translate(-4, -18)" d="M 0 0 C 0.33 0 0.66 0 1 0 C 1.33 11.22 1.66 22.44 2 34 C 3.65 34 5.3 34 7 34 C 7.33 34.66 7.66 35.32 8 36 C 5.36 36 2.72 36 0 36 C 0 24.12 0 12.24 0 0 Z" stroke-linecap="round" />
</g>
<g transform="matrix(0.37 0 0 0.37 432.66 345.29)"  >
<path style="stroke: none; stroke-width: 1; stroke-dasharray: none; stroke-linecap: butt; stroke-dashoffset: 0; stroke-linejoin: miter; stroke-miterlimit: 4; fill: rgb(16,22,26); fill-rule: nonzero; opacity: 1;" vector-effect="non-scaling-stroke"  transform=" translate(4, -15)" d="M 0 0 C 0 9.9 0 19.8 0 30 C -0.66 30 -1.32 30 -2 30 C -2 20.76 -2 11.52 -2 2 C -3.98 2 -5.96 2 -8 2 C -8 1.67 -8 1.34 -8 1 C -5.23735711 0.40267181 -2.83967231 0 0 0 Z" stroke-linecap="round" />
</g>
<g transform="matrix(0.37 0 0 0.37 394.14 319.37)"  >
<path style="stroke: none; stroke-width: 1; stroke-dasharray: none; stroke-linecap: butt; stroke-dashoffset: 0; stroke-linejoin: miter; stroke-miterlimit: 4; fill: rgb(29,45,56); fill-rule: nonzero; opacity: 1;" vector-effect="non-scaling-stroke"  transform=" translate(3, -8)" d="M 0 0 C 0.66 1.32 1.32 2.64 2 4 C 0.71344735 5.81613362 -0.57939995 7.62780954 -1.875 9.4375 C -2.95394531 10.95150391 -2.95394531 10.95150391 -4.0546875 12.49609375 C -6 15 -6 15 -8 16 C -7.67 14.35 -7.34 12.7 -7 11 C -6.01 10.67 -5.02 10.34 -4 10 C -3.7834375 8.576875 -3.7834375 8.576875 -3.5625 7.125 C -3 4 -3 4 -2 2 C -1.34 2 -0.68 2 0 2 C 0 1.34 0 0.68 0 0 Z" stroke-linecap="round" />
</g>
<g transform="matrix(0.37 0 0 0.37 438.76 439)"  >
<path style="stroke: none; stroke-width: 1; stroke-dasharray: none; stroke-linecap: butt; stroke-dashoffset: 0; stroke-linejoin: miter; stroke-miterlimit: 4; fill: rgb(14,22,22); fill-rule: nonzero; opacity: 1;" vector-effect="non-scaling-stroke"  transform=" translate(5.5, -5)" d="M 0 0 C 0.99 0.33 1.98 0.66 3 1 C -0.90102763 5.53022563 -5.20414706 8.32853679 -11 10 C -11.99 9.67 -12.98 9.34 -14 9 C -13.32453125 8.60167969 -12.6490625 8.20335937 -11.953125 7.79296875 C -11.06109375 7.26316406 -10.1690625 6.73335937 -9.25 6.1875 C -8.36828125 5.66542969 -7.4865625 5.14335938 -6.578125 4.60546875 C -3.99862222 3.07741518 -3.99862222 3.07741518 -1.859375 1.23828125 C -1.24578125 0.82964844 -0.6321875 0.42101562 0 0 Z" stroke-linecap="round" />
</g>
<g transform="matrix(0.37 0 0 0.37 452.85 446.23)"  >
<path style="stroke: none; stroke-width: 1; stroke-dasharray: none; stroke-linecap: butt; stroke-dashoffset: 0; stroke-linejoin: miter; stroke-miterlimit: 4; fill: rgb(223,228,235); fill-rule: nonzero; opacity: 1;" vector-effect="non-scaling-stroke"  transform=" translate(4.5, -6.5)" d="M 0 0 C 0.33 0.66 0.66 1.32 1 2 C -1.062239 6.43522633 -3.73509285 10.47264762 -8 13 C -8.66 12.67 -9.32 12.34 -10 12 C -8.52149287 10.18696196 -7.04217625 8.37458402 -5.5625 6.5625 C -4.32693359 5.04849609 -4.32693359 5.04849609 -3.06640625 3.50390625 C -1 1 -1 1 0 0 Z" stroke-linecap="round" />
</g>
<g transform="matrix(0.37 0 0 0.37 414.33 288.63)"  >
<path style="stroke: none; stroke-width: 1; stroke-dasharray: none; stroke-linecap: butt; stroke-dashoffset: 0; stroke-linejoin: miter; stroke-miterlimit: 4; fill: rgb(29,31,31); fill-rule: nonzero; opacity: 1;" vector-effect="non-scaling-stroke"  transform=" translate(1.5, -7)" d="M 0 0 C 0.99 0.66 1.98 1.32 3 2 C 2.25 3.9375 2.25 3.9375 1 6 C -1.125 6.75 -1.125 6.75 -3 7 C -3.33 9.31 -3.66 11.62 -4 14 C -5.1796875 12.328125 -5.1796875 12.328125 -6 10 C -4.8828125 7.421875 -4.8828125 7.421875 -3.125 4.75 C -2.26261719 3.41195313 -2.26261719 3.41195313 -1.3828125 2.046875 C -0.92648437 1.37140625 -0.47015625 0.6959375 0 0 Z" stroke-linecap="round" />
</g>
<g transform="matrix(0.37 0 0 0.37 462.13 282.88)"  >
<path style="stroke: none; stroke-width: 1; stroke-dasharray: none; stroke-linecap: butt; stroke-dashoffset: 0; stroke-linejoin: miter; stroke-miterlimit: 4; fill: rgb(43,47,51); fill-rule: nonzero; opacity: 1;" vector-effect="non-scaling-stroke"  transform=" translate(-1.58, -10.5)" d="M 0 0 C 3.57770698 6.67437773 4.27166506 13.52921098 4 21 C 3.67 21 3.34 21 3 21 C 2.30278105 18.06449875 1.61690995 15.12712524 0.9375 12.1875 C 0.73833984 11.35412109 0.53917969 10.52074219 0.33398438 9.66210938 C 0.15029297 8.85966797 -0.03339844 8.05722656 -0.22265625 7.23046875 C -0.39547119 6.49207764 -0.56828613 5.75368652 -0.74633789 4.99291992 C -1 3 -1 3 0 0 Z" stroke-linecap="round" />
</g>
<g transform="matrix(0.37 0 0 0.37 319.75 304.37)"  >
<path style="stroke: none; stroke-width: 1; stroke-dasharray: none; stroke-linecap: butt; stroke-dashoffset: 0; stroke-linejoin: miter; stroke-miterlimit: 4; fill: rgb(9,13,18); fill-rule: nonzero; opacity: 1;" vector-effect="non-scaling-stroke"  transform=" translate(-1.15, -9.5)" d="M 0 0 C 2.56761548 2.61478952 2.9956345 3.94528576 3.29296875 7.671875 C 3.27316751 9.03156035 3.23759202 10.3910934 3.1875 11.75 C 3.17396484 12.44738281 3.16042969 13.14476562 3.14648438 13.86328125 C 3.1112945 15.57585541 3.05749155 17.28802941 3 19 C 2.67 19 2.34 19 2 19 C 1.80083984 17.67935547 1.80083984 17.67935547 1.59765625 16.33203125 C 1.42105469 15.17058594 1.24445313 14.00914062 1.0625 12.8125 C 0.88847656 11.66394531 0.71445312 10.51539063 0.53515625 9.33203125 C 0.20194696 7.2573778 -0.17812417 5.18903717 -0.62890625 3.13671875 C -0.75136719 2.43160156 -0.87382812 1.72648437 -1 1 C -0.67 0.67 -0.34 0.34 0 0 Z" stroke-linecap="round" />
</g>
<g transform="matrix(0.37 0 0 0.37 316.54 314.56)"  >
<path style="stroke: none; stroke-width: 1; stroke-dasharray: none; stroke-linecap: butt; stroke-dashoffset: 0; stroke-linejoin: miter; stroke-miterlimit: 4; fill: rgb(10,15,16); fill-rule: nonzero; opacity: 1;" vector-effect="non-scaling-stroke"  transform=" translate(4.5, -6)" d="M 0 0 C 0.33 0.99 0.66 1.98 1 3 C 0.67 3.66 0.34 4.32 0 5 C -0.66 5 -1.32 5 -2 5 C -2 5.99 -2 6.98 -2 8 C -5.96 9.98 -5.96 9.98 -10 12 C -7.8363687 7.67273741 -5.69901647 6.00545088 -2 3 C -1.34 2.01 -0.68 1.02 0 0 Z" stroke-linecap="round" />
</g>
<g transform="matrix(0.37 0 0 0.37 362.48 315.33)"  >
<path style="stroke: none; stroke-width: 1; stroke-dasharray: none; stroke-linecap: butt; stroke-dashoffset: 0; stroke-linejoin: miter; stroke-miterlimit: 4; fill: rgb(12,18,25); fill-rule: nonzero; opacity: 1;" vector-effect="non-scaling-stroke"  transform=" translate(-4.5, -3.09)" d="M 0 0 C 4.24822374 0.47202486 6.19989709 2.96655518 9 6 C 6.75 6.25 6.75 6.25 4 6 C 1.6875 4.125 1.6875 4.125 0 2 C 0 1.34 0 0.68 0 0 Z" stroke-linecap="round" />
</g>
<g transform="matrix(0.37 0 0 0.37 430.44 301.96)"  >
<path style="stroke: none; stroke-width: 1; stroke-dasharray: none; stroke-linecap: butt; stroke-dashoffset: 0; stroke-linejoin: miter; stroke-miterlimit: 4; fill: rgb(229,235,238); fill-rule: nonzero; opacity: 1;" vector-effect="non-scaling-stroke"  transform=" translate(4, -4)" d="M 0 0 C -1.50223584 4.20626034 -4.28550034 5.73900021 -8 8 C -8 7.01 -8 6.02 -8 5 C -2.65116279 0 -2.65116279 0 0 0 Z" stroke-linecap="round" />
</g>
<g transform="matrix(0.37 0 0 0.37 265.37 233.23)"  >
<path style="stroke: none; stroke-width: 1; stroke-dasharray: none; stroke-linecap: butt; stroke-dashoffset: 0; stroke-linejoin: miter; stroke-miterlimit: 4; fill: rgb(234,236,237); fill-rule: nonzero; opacity: 1;" vector-effect="non-scaling-stroke"  transform=" translate(2.5, -4)" d="M 0 0 C 0.66 0.33 1.32 0.66 2 1 C 0.88121617 2.17262904 -0.24523051 3.33795138 -1.375 4.5 C -2.00148438 5.1496875 -2.62796875 5.799375 -3.2734375 6.46875 C -5 8 -5 8 -7 8 C -5.50902342 4.2047869 -3.24299151 2.38957269 0 0 Z" stroke-linecap="round" />
</g>
<g transform="matrix(0.37 0 0 0.37 258.03 435.86)"  >
<path style="stroke: none; stroke-width: 1; stroke-dasharray: none; stroke-linecap: butt; stroke-dashoffset: 0; stroke-linejoin: miter; stroke-miterlimit: 4; fill: rgb(217,220,222); fill-rule: nonzero; opacity: 1;" vector-effect="non-scaling-stroke"  transform=" translate(-2.5, -4.5)" d="M 0 0 C 3.0916909 2.52956528 3.90931332 5.22454612 5 9 C 4.01 8.67 3.02 8.34 2 8 C 2 7.34 2 6.68 2 6 C 1.34 6 0.68 6 0 6 C 0 4.02 0 2.04 0 0 Z" stroke-linecap="round" />
</g>
<g transform="matrix(0.37 0 0 0.37 418.4 283.25)"  >
<path style="stroke: none; stroke-width: 1; stroke-dasharray: none; stroke-linecap: butt; stroke-dashoffset: 0; stroke-linejoin: miter; stroke-miterlimit: 4; fill: rgb(216,218,219); fill-rule: nonzero; opacity: 1;" vector-effect="non-scaling-stroke"  transform=" translate(1.56, -2.53)" d="M 0 0 C 1.4540625 0.0309375 1.4540625 0.0309375 2.9375 0.0625 C 0.08443203 2.38722205 -2.60324837 3.8133258 -6.0625 5.0625 C -3.64893617 0.07446809 -3.64893617 0.07446809 0 0 Z" stroke-linecap="round" />
</g>
<g transform="matrix(0.37 0 0 0.37 347.1 317.89)"  >
<path style="stroke: none; stroke-width: 1; stroke-dasharray: none; stroke-linecap: butt; stroke-dashoffset: 0; stroke-linejoin: miter; stroke-miterlimit: 4; fill: rgb(30,33,40); fill-rule: nonzero; opacity: 1;" vector-effect="non-scaling-stroke"  transform=" translate(-3, -5)" d="M 0 0 C 0.66 0 1.32 0 2 0 C 3.32 2.97 4.64 5.94 6 9 C 5.01 9.495 5.01 9.495 4 10 C 3.32845067 8.71086513 2.66291141 7.41859796 2 6.125 C 1.62875 5.40570313 1.2575 4.68640625 0.875 3.9453125 C 0 2 0 2 0 0 Z" stroke-linecap="round" />
</g>
<g transform="matrix(0.37 0 0 0.37 382.42 301.59)"  >
<path style="stroke: none; stroke-width: 1; stroke-dasharray: none; stroke-linecap: butt; stroke-dashoffset: 0; stroke-linejoin: miter; stroke-miterlimit: 4; fill: rgb(12,16,19); fill-rule: nonzero; opacity: 1;" vector-effect="non-scaling-stroke"  transform=" translate(-2.34, -5)" d="M 0 0 C 0.66 0 1.32 0 2 0 C 5.125 6.625 5.125 6.625 4 10 C 3.32845067 8.71086513 2.66291141 7.41859796 2 6.125 C 1.62875 5.40570313 1.2575 4.68640625 0.875 3.9453125 C 0 2 0 2 0 0 Z" stroke-linecap="round" />
</g>
<g transform="matrix(0.37 0 0 0.37 392.48 288.63)"  >
<path style="stroke: none; stroke-width: 1; stroke-dasharray: none; stroke-linecap: butt; stroke-dashoffset: 0; stroke-linejoin: miter; stroke-miterlimit: 4; fill: rgb(236,241,246); fill-rule: nonzero; opacity: 1;" vector-effect="non-scaling-stroke"  transform=" translate(-3.5, -4)" d="M 0 0 C 1.485 0.99 1.485 0.99 3 2 C 3 2.66 3 3.32 3 4 C 4.32 4.66 5.64 5.32 7 6 C 6.34 6.66 5.68 7.32 5 8 C 2.5 5.6875 2.5 5.6875 0 3 C 0 2.01 0 1.02 0 0 Z" stroke-linecap="round" />
</g>
<g transform="matrix(0.37 0 0 0.37 441.18 454)"  >
<path style="stroke: none; stroke-width: 1; stroke-dasharray: none; stroke-linecap: butt; stroke-dashoffset: 0; stroke-linejoin: miter; stroke-miterlimit: 4; fill: rgb(218,221,222); fill-rule: nonzero; opacity: 1;" vector-effect="non-scaling-stroke"  transform=" translate(4, -2.5)" d="M 0 0 C -0.33 0.99 -0.66 1.98 -1 3 C -3.5625 4.1875 -3.5625 4.1875 -6 5 C -6.66 4.34 -7.32 3.68 -8 3 C -2.25 0 -2.25 0 0 0 Z" stroke-linecap="round" />
</g>
<g transform="matrix(0.37 0 0 0.37 320.3 427.15)"  >
<path style="stroke: none; stroke-width: 1; stroke-dasharray: none; stroke-linecap: butt; stroke-dashoffset: 0; stroke-linejoin: miter; stroke-miterlimit: 4; fill: rgb(28,37,36); fill-rule: nonzero; opacity: 1;" vector-effect="non-scaling-stroke"  transform=" translate(-0.62, -5)" d="M 0 0 C 0.33 0 0.66 0 1 0 C 1.33 3.3 1.66 6.6 2 10 C 1.34 10 0.68 10 0 10 C -0.74926071 6.33694766 -1.2380014 3.57644848 0 0 Z" stroke-linecap="round" />
</g>
<g transform="matrix(0.37 0 0 0.37 393.4 321.04)"  >
<path style="stroke: none; stroke-width: 1; stroke-dasharray: none; stroke-linecap: butt; stroke-dashoffset: 0; stroke-linejoin: miter; stroke-miterlimit: 4; fill: rgb(44,52,66); fill-rule: nonzero; opacity: 1;" vector-effect="non-scaling-stroke"  transform=" translate(1, -3.5)" d="M 0 0 C 0.66 0.33 1.32 0.66 2 1 C 0.35 2.98 -1.3 4.96 -3 7 C -3.33 6.01 -3.66 5.02 -4 4 C -2.68 2.68 -1.36 1.36 0 0 Z" stroke-linecap="round" />
</g>
<g transform="matrix(0.37 0 0 0.37 345.44 313.07)"  >
<path style="stroke: none; stroke-width: 1; stroke-dasharray: none; stroke-linecap: butt; stroke-dashoffset: 0; stroke-linejoin: miter; stroke-miterlimit: 4; fill: rgb(12,12,20); fill-rule: nonzero; opacity: 1;" vector-effect="non-scaling-stroke"  transform=" translate(-1.5, -5)" d="M 0 0 C 2.29633824 3.44450737 2.54016485 5.93812283 3 10 C 2.34 9.67 1.68 9.34 1 9 C 0.5859375 6.93359375 0.5859375 6.93359375 0.375 4.4375 C 0.30023438 3.61121094 0.22546875 2.78492188 0.1484375 1.93359375 C 0.09945313 1.29550781 0.05046875 0.65742188 0 0 Z" stroke-linecap="round" />
</g>
</svg>